<svg xmlns="http://www.w3.org/2000/svg" xmlns:xlink="http://www.w3.org/1999/xlink" width="333" zoomAndPan="magnify" viewBox="0 0 249.75 379.499984" height="506" preserveAspectRatio="xMidYMid meet" version="1.0"><defs><g/><clipPath id="624ff6ccfa"><rect x="0" width="82" y="0" height="163"/></clipPath><clipPath id="9cf5d3d418"><rect x="0" width="176" y="0" height="146"/></clipPath><clipPath id="89a349466c"><path d="M 111.003906 161.917969 L 207.953125 161.917969 L 207.953125 169.859375 L 111.003906 169.859375 Z M 111.003906 161.917969 " clip-rule="nonzero"/></clipPath><clipPath id="b91d36e667"><path d="M 0.00390625 0.917969 L 96.953125 0.917969 L 96.953125 8.859375 L 0.00390625 8.859375 Z M 0.00390625 0.917969 " clip-rule="nonzero"/></clipPath><clipPath id="897277eb53"><rect x="0" width="97" y="0" height="9"/></clipPath><clipPath id="c9b782d34f"><rect x="0" width="51" y="0" height="146"/></clipPath><clipPath id="b54ce7713e"><rect x="0" width="79" y="0" height="146"/></clipPath><clipPath id="91a44e39a9"><rect x="0" width="52" y="0" height="146"/></clipPath></defs><g transform="matrix(1, 0, 0, 1, 33, 42)"><g clip-path="url(#624ff6ccfa)"><g fill="#ae81ff" fill-opacity="1"><g transform="translate(0.791249, 130.553819)"><g><path d="M 11.25 -20.5 L 52.25 -40.46875 C 53.300781 -41 54.269531 -41.441406 55.15625 -41.796875 C 56.039062 -42.148438 56.832031 -42.414062 57.53125 -42.59375 C 58.238281 -42.851562 58.898438 -43.03125 59.515625 -43.125 L 59.515625 -44.046875 C 58.898438 -44.128906 58.238281 -44.304688 57.53125 -44.578125 C 56.03125 -44.835938 54.269531 -45.5 52.25 -46.5625 L 11.25 -66.921875 L 11.25 -78.703125 L 68.109375 -50.265625 L 68.109375 -37.03125 L 11.25 -8.59375 Z M 11.25 -20.5 "/></g></g></g></g></g><g fill="#a6e22e" fill-opacity="1"><g transform="translate(112.33703, 151.53296)"><g><path d="M 25.15625 -61.84375 C 30.769531 -61.84375 35.257812 -60.019531 38.625 -56.375 C 41.988281 -52.726562 43.671875 -47.851562 43.671875 -41.75 L 43.671875 -1.203125 C 43.671875 -0.398438 43.269531 0 42.46875 0 L 36.34375 0 C 35.539062 0 35.140625 -0.398438 35.140625 -1.203125 L 35.140625 -4.8125 C 35.140625 -4.96875 35.078125 -5.066406 34.953125 -5.109375 C 34.835938 -5.148438 34.695312 -5.09375 34.53125 -4.9375 C 31.5625 -1 27.109375 0.96875 21.171875 0.96875 C 16.765625 0.96875 12.9375 -0.296875 9.6875 -2.828125 C 6.4375 -5.359375 4.8125 -9.832031 4.8125 -16.25 C 4.8125 -23.0625 6.773438 -28.050781 10.703125 -31.21875 C 14.640625 -34.394531 19.816406 -35.984375 26.234375 -35.984375 L 34.65625 -35.984375 C 34.976562 -35.984375 35.140625 -36.140625 35.140625 -36.453125 L 35.140625 -41.15625 C 35.140625 -45.164062 34.210938 -48.375 32.359375 -50.78125 C 30.515625 -53.1875 28.03125 -54.390625 24.90625 -54.390625 C 22.5 -54.390625 20.429688 -53.585938 18.703125 -51.984375 C 16.984375 -50.378906 15.960938 -48.332031 15.640625 -45.84375 C 15.640625 -45.039062 15.238281 -44.640625 14.4375 -44.640625 L 7.703125 -44.765625 C 7.296875 -44.765625 6.992188 -44.882812 6.796875 -45.125 C 6.597656 -45.363281 6.539062 -45.644531 6.625 -45.96875 C 7.019531 -50.695312 8.941406 -54.523438 12.390625 -57.453125 C 15.835938 -60.378906 20.09375 -61.84375 25.15625 -61.84375 Z M 22.984375 -6.5 C 26.273438 -6.5 29.125 -7.5625 31.53125 -9.6875 C 33.9375 -11.8125 35.140625 -14.757812 35.140625 -18.53125 L 35.140625 -28.640625 C 35.140625 -28.960938 34.976562 -29.125 34.65625 -29.125 L 26.109375 -29.125 C 22.253906 -29.125 19.203125 -28.097656 16.953125 -26.046875 C 14.710938 -24.003906 13.59375 -20.976562 13.59375 -16.96875 C 13.59375 -13.4375 14.453125 -10.804688 16.171875 -9.078125 C 17.898438 -7.359375 20.171875 -6.5 22.984375 -6.5 Z M 22.984375 -6.5 "/></g></g></g><g fill="#a6e22e" fill-opacity="1"><g transform="translate(170.797963, 153.980079)"><g><path d="M 5.984375 0 C 5.367188 0 5.0625 -0.304688 5.0625 -0.921875 L 5.0625 -63.5625 C 5.0625 -64.175781 5.367188 -64.484375 5.984375 -64.484375 L 10.6875 -64.484375 C 11.300781 -64.484375 11.609375 -64.175781 11.609375 -63.5625 L 11.609375 -0.921875 C 11.609375 -0.304688 11.300781 0 10.6875 0 Z M 5.984375 0 "/></g></g></g><g transform="matrix(1, 0, 0, 1, 33, 122)"><g clip-path="url(#9cf5d3d418)"><g fill="#ffffff" fill-opacity="1"><g transform="translate(1.061975, 121.365553)"><g><path d="M 47.40625 -83.03125 C 47.40625 -83.832031 47.804688 -84.234375 48.609375 -84.234375 L 54.75 -84.234375 C 55.550781 -84.234375 55.953125 -83.832031 55.953125 -83.03125 L 55.953125 -1.203125 C 55.953125 -0.398438 55.550781 0 54.75 0 L 48.609375 0 C 47.804688 0 47.40625 -0.398438 47.40625 -1.203125 L 47.40625 -6.25 C 47.40625 -6.414062 47.34375 -6.519531 47.21875 -6.5625 C 47.101562 -6.601562 46.96875 -6.539062 46.8125 -6.375 C 45.039062 -4.050781 42.851562 -2.242188 40.25 -0.953125 C 37.644531 0.328125 34.738281 0.96875 31.53125 0.96875 C 25.914062 0.96875 21.203125 -0.472656 17.390625 -3.359375 C 13.578125 -6.253906 10.945312 -10.1875 9.5 -15.15625 C 8.382812 -18.769531 7.828125 -23.863281 7.828125 -30.4375 C 7.828125 -37.101562 8.304688 -42.078125 9.265625 -45.359375 C 10.710938 -50.492188 13.359375 -54.523438 17.203125 -57.453125 C 21.054688 -60.378906 25.832031 -61.84375 31.53125 -61.84375 C 34.65625 -61.84375 37.539062 -61.222656 40.1875 -59.984375 C 42.832031 -58.742188 45.039062 -56.957031 46.8125 -54.625 C 46.96875 -54.46875 47.101562 -54.410156 47.21875 -54.453125 C 47.34375 -54.492188 47.40625 -54.59375 47.40625 -54.75 Z M 45.25 -15.765625 C 45.96875 -17.367188 46.484375 -19.253906 46.796875 -21.421875 C 47.117188 -23.585938 47.28125 -26.59375 47.28125 -30.4375 C 47.28125 -34.289062 47.117188 -37.320312 46.796875 -39.53125 C 46.484375 -41.738281 45.925781 -43.679688 45.125 -45.359375 C 44.15625 -48.085938 42.566406 -50.273438 40.359375 -51.921875 C 38.160156 -53.566406 35.535156 -54.390625 32.484375 -54.390625 C 29.273438 -54.390625 26.507812 -53.585938 24.1875 -51.984375 C 21.863281 -50.378906 20.175781 -48.253906 19.125 -45.609375 C 18.164062 -43.835938 17.460938 -41.847656 17.015625 -39.640625 C 16.578125 -37.441406 16.359375 -34.375 16.359375 -30.4375 C 16.359375 -26.664062 16.519531 -23.71875 16.84375 -21.59375 C 17.164062 -19.46875 17.726562 -17.566406 18.53125 -15.890625 C 19.488281 -12.992188 21.191406 -10.703125 23.640625 -9.015625 C 26.085938 -7.335938 29 -6.5 32.375 -6.5 C 35.582031 -6.5 38.265625 -7.335938 40.421875 -9.015625 C 42.585938 -10.703125 44.195312 -12.953125 45.25 -15.765625 Z M 45.25 -15.765625 "/></g></g></g><g fill="#ffffff" fill-opacity="1"><g transform="translate(66.751626, 121.365553)"><g><path d="M 56.3125 -40.671875 C 56.632812 -38.421875 56.796875 -35.613281 56.796875 -32.25 L 56.796875 -28.390625 C 56.796875 -27.585938 56.394531 -27.1875 55.59375 -27.1875 L 16.71875 -27.1875 C 16.40625 -27.1875 16.25 -27.03125 16.25 -26.71875 C 16.40625 -22.300781 16.644531 -19.453125 16.96875 -18.171875 C 17.851562 -14.554688 19.738281 -11.707031 22.625 -9.625 C 25.507812 -7.539062 29.195312 -6.5 33.6875 -6.5 C 37.0625 -6.5 40.03125 -7.257812 42.59375 -8.78125 C 45.164062 -10.300781 47.171875 -12.46875 48.609375 -15.28125 C 49.085938 -16 49.648438 -16.160156 50.296875 -15.765625 L 54.984375 -13 C 55.628906 -12.59375 55.789062 -12.03125 55.46875 -11.3125 C 53.46875 -7.457031 50.460938 -4.425781 46.453125 -2.21875 C 42.441406 -0.0195312 37.828125 1.078125 32.609375 1.078125 C 26.910156 1.003906 22.132812 -0.351562 18.28125 -3 C 14.4375 -5.65625 11.671875 -9.347656 9.984375 -14.078125 C 8.546875 -17.929688 7.828125 -23.46875 7.828125 -30.6875 C 7.828125 -34.050781 7.882812 -36.796875 8 -38.921875 C 8.125 -41.046875 8.425781 -42.953125 8.90625 -44.640625 C 10.269531 -49.859375 13.015625 -54.03125 17.140625 -57.15625 C 21.273438 -60.28125 26.269531 -61.84375 32.125 -61.84375 C 39.425781 -61.84375 45.039062 -60 48.96875 -56.3125 C 52.90625 -52.625 55.351562 -47.410156 56.3125 -40.671875 Z M 32.125 -54.390625 C 28.195312 -54.390625 24.925781 -53.363281 22.3125 -51.3125 C 19.707031 -49.269531 18.003906 -46.523438 17.203125 -43.078125 C 16.722656 -41.390625 16.40625 -38.660156 16.25 -34.890625 C 16.25 -34.566406 16.40625 -34.40625 16.71875 -34.40625 L 47.890625 -34.40625 C 48.210938 -34.40625 48.375 -34.566406 48.375 -34.890625 C 48.207031 -38.503906 47.96875 -41.070312 47.65625 -42.59375 C 46.769531 -46.207031 44.984375 -49.078125 42.296875 -51.203125 C 39.609375 -53.328125 36.21875 -54.390625 32.125 -54.390625 Z M 32.125 -54.390625 "/></g></g></g><g fill="#ffffff" fill-opacity="1"><g transform="translate(130.877238, 121.365553)"><g><path d="M 34.171875 -61.484375 C 36.816406 -61.484375 39.101562 -60.960938 41.03125 -59.921875 C 41.675781 -59.597656 41.914062 -59.078125 41.75 -58.359375 L 40.4375 -52.46875 C 40.1875 -51.664062 39.660156 -51.421875 38.859375 -51.734375 C 37.503906 -52.296875 35.941406 -52.578125 34.171875 -52.578125 L 32.609375 -52.46875 C 28.441406 -52.300781 24.992188 -50.753906 22.265625 -47.828125 C 19.535156 -44.898438 18.171875 -41.191406 18.171875 -36.703125 L 18.171875 -1.203125 C 18.171875 -0.398438 17.769531 0 16.96875 0 L 10.828125 0 C 10.023438 0 9.625 -0.398438 9.625 -1.203125 L 9.625 -59.6875 C 9.625 -60.488281 10.023438 -60.890625 10.828125 -60.890625 L 16.96875 -60.890625 C 17.769531 -60.890625 18.171875 -60.488281 18.171875 -59.6875 L 18.171875 -52.34375 C 18.171875 -52.101562 18.226562 -51.960938 18.34375 -51.921875 C 18.46875 -51.878906 18.570312 -51.941406 18.65625 -52.109375 C 20.332031 -55.066406 22.472656 -57.367188 25.078125 -59.015625 C 27.691406 -60.660156 30.722656 -61.484375 34.171875 -61.484375 Z M 34.171875 -61.484375 "/></g></g></g></g></g><g clip-path="url(#89a349466c)"><g transform="matrix(1, 0, 0, 1, 111, 161)"><g clip-path="url(#897277eb53)"><g clip-path="url(#b91d36e667)"><path fill="#ae81ff" d="M 0.00390625 0.917969 L 96.957031 0.917969 L 96.957031 8.859375 L 0.00390625 8.859375 Z M 0.00390625 0.917969 " fill-opacity="1" fill-rule="nonzero"/></g></g></g></g><g transform="matrix(1, 0, 0, 1, 112, 201)"><g clip-path="url(#c9b782d34f)"><g fill="#fd971f" fill-opacity="1"><g transform="translate(0.33703, 120.914812)"><g><path d="M 25.15625 -61.84375 C 30.769531 -61.84375 35.257812 -60.019531 38.625 -56.375 C 41.988281 -52.726562 43.671875 -47.851562 43.671875 -41.75 L 43.671875 -1.203125 C 43.671875 -0.398438 43.269531 0 42.46875 0 L 36.34375 0 C 35.539062 0 35.140625 -0.398438 35.140625 -1.203125 L 35.140625 -4.8125 C 35.140625 -4.96875 35.078125 -5.066406 34.953125 -5.109375 C 34.835938 -5.148438 34.695312 -5.09375 34.53125 -4.9375 C 31.5625 -1 27.109375 0.96875 21.171875 0.96875 C 16.765625 0.96875 12.9375 -0.296875 9.6875 -2.828125 C 6.4375 -5.359375 4.8125 -9.832031 4.8125 -16.25 C 4.8125 -23.0625 6.773438 -28.050781 10.703125 -31.21875 C 14.640625 -34.394531 19.816406 -35.984375 26.234375 -35.984375 L 34.65625 -35.984375 C 34.976562 -35.984375 35.140625 -36.140625 35.140625 -36.453125 L 35.140625 -41.15625 C 35.140625 -45.164062 34.210938 -48.375 32.359375 -50.78125 C 30.515625 -53.1875 28.03125 -54.390625 24.90625 -54.390625 C 22.5 -54.390625 20.429688 -53.585938 18.703125 -51.984375 C 16.984375 -50.378906 15.960938 -48.332031 15.640625 -45.84375 C 15.640625 -45.039062 15.238281 -44.640625 14.4375 -44.640625 L 7.703125 -44.765625 C 7.296875 -44.765625 6.992188 -44.882812 6.796875 -45.125 C 6.597656 -45.363281 6.539062 -45.644531 6.625 -45.96875 C 7.019531 -50.695312 8.941406 -54.523438 12.390625 -57.453125 C 15.835938 -60.378906 20.09375 -61.84375 25.15625 -61.84375 Z M 22.984375 -6.5 C 26.273438 -6.5 29.125 -7.5625 31.53125 -9.6875 C 33.9375 -11.8125 35.140625 -14.757812 35.140625 -18.53125 L 35.140625 -28.640625 C 35.140625 -28.960938 34.976562 -29.125 34.65625 -29.125 L 26.109375 -29.125 C 22.253906 -29.125 19.203125 -28.097656 16.953125 -26.046875 C 14.710938 -24.003906 13.59375 -20.976562 13.59375 -16.96875 C 13.59375 -13.4375 14.453125 -10.804688 16.171875 -9.078125 C 17.898438 -7.359375 20.171875 -6.5 22.984375 -6.5 Z M 22.984375 -6.5 "/></g></g></g></g></g><g transform="matrix(1, 0, 0, 1, 33, 201)"><g clip-path="url(#b54ce7713e)"><g fill="#fd971f" fill-opacity="1"><g transform="translate(0.791249, 120.934488)"><g><path d="M 55.984375 -61.625 C 60.785156 -61.625 64.503906 -59.859375 67.140625 -56.328125 C 69.785156 -52.804688 71.109375 -47.925781 71.109375 -41.6875 L 71.109375 -1.203125 C 71.109375 -0.398438 70.707031 0 69.90625 0 L 63.90625 0 C 63.101562 0 62.703125 -0.398438 62.703125 -1.203125 L 62.703125 -40.96875 C 62.703125 -45.050781 61.84375 -48.269531 60.125 -50.625 C 58.40625 -52.988281 56.140625 -54.171875 53.328125 -54.171875 C 50.285156 -54.171875 47.882812 -53.007812 46.125 -50.6875 C 44.363281 -48.363281 43.484375 -45.203125 43.484375 -41.203125 L 43.484375 -1.203125 C 43.484375 -0.398438 43.082031 0 42.28125 0 L 36.15625 0 C 35.351562 0 34.953125 -0.398438 34.953125 -1.203125 L 34.953125 -40.96875 C 34.953125 -45.050781 34.09375 -48.269531 32.375 -50.625 C 30.65625 -52.988281 28.429688 -54.171875 25.703125 -54.171875 C 22.660156 -54.171875 20.238281 -53.007812 18.4375 -50.6875 C 16.632812 -48.363281 15.734375 -45.203125 15.734375 -41.203125 L 15.734375 -1.203125 C 15.734375 -0.398438 15.332031 0 14.53125 0 L 8.53125 0 C 7.726562 0 7.328125 -0.398438 7.328125 -1.203125 L 7.328125 -59.578125 C 7.328125 -60.378906 7.726562 -60.78125 8.53125 -60.78125 L 14.53125 -60.78125 C 15.332031 -60.78125 15.734375 -60.378906 15.734375 -59.578125 L 15.734375 -55.859375 C 15.734375 -55.703125 15.789062 -55.601562 15.90625 -55.5625 C 16.03125 -55.519531 16.175781 -55.578125 16.34375 -55.734375 C 17.863281 -57.734375 19.660156 -59.210938 21.734375 -60.171875 C 23.816406 -61.140625 26.019531 -61.625 28.34375 -61.625 C 31.394531 -61.625 34.039062 -60.878906 36.28125 -59.390625 C 38.519531 -57.910156 40.238281 -55.8125 41.4375 -53.09375 C 41.519531 -52.9375 41.640625 -52.859375 41.796875 -52.859375 C 41.960938 -52.859375 42.082031 -52.976562 42.15625 -53.21875 C 43.601562 -56.101562 45.566406 -58.222656 48.046875 -59.578125 C 50.535156 -60.941406 53.179688 -61.625 55.984375 -61.625 Z M 55.984375 -61.625 "/></g></g></g></g></g><g transform="matrix(1, 0, 0, 1, 165, 201)"><g clip-path="url(#91a44e39a9)"><g fill="#fd971f" fill-opacity="1"><g transform="translate(0.607127, 120.918981)"><g><path d="M 28.984375 -61.703125 C 33.878906 -61.703125 37.671875 -60.015625 40.359375 -56.640625 C 43.046875 -53.273438 44.390625 -48.585938 44.390625 -42.578125 L 44.390625 -1.203125 C 44.390625 -0.398438 43.988281 0 43.1875 0 L 37.046875 0 C 36.242188 0 35.84375 -0.398438 35.84375 -1.203125 L 35.84375 -41.859375 C 35.84375 -45.785156 34.976562 -48.832031 33.25 -51 C 31.53125 -53.164062 29.144531 -54.25 26.09375 -54.25 C 22.894531 -54.25 20.390625 -53.082031 18.578125 -50.75 C 16.773438 -48.425781 15.875 -45.257812 15.875 -41.25 L 15.875 -1.203125 C 15.875 -0.398438 15.472656 0 14.671875 0 L 8.546875 0 C 7.742188 0 7.34375 -0.398438 7.34375 -1.203125 L 7.34375 -59.65625 C 7.34375 -60.457031 7.742188 -60.859375 8.546875 -60.859375 L 14.671875 -60.859375 C 15.472656 -60.859375 15.875 -60.457031 15.875 -59.65625 L 15.875 -55.8125 C 15.875 -55.644531 15.953125 -55.519531 16.109375 -55.4375 C 16.273438 -55.363281 16.398438 -55.445312 16.484375 -55.6875 C 17.921875 -57.695312 19.742188 -59.203125 21.953125 -60.203125 C 24.160156 -61.203125 26.503906 -61.703125 28.984375 -61.703125 Z M 28.984375 -61.703125 "/></g></g></g></g></g></svg>