<svg xmlns="http://www.w3.org/2000/svg" xmlns:xlink="http://www.w3.org/1999/xlink" width="372" zoomAndPan="magnify" viewBox="0 0 279 62.249996" height="83" preserveAspectRatio="xMidYMid meet" version="1.0"><defs><g></g><clipPath id="f484d333fe"><rect x="0" width="252" y="0" height="47"></rect></clipPath></defs><g transform="matrix(1, 0, 0, 1, 13, 7)"><g clip-path="url(#f484d333fe)"><g fill="#ae81ff" fill-opacity="1"><g transform="translate(1.276731, 37.149034)"><g><path d="M 2.390625 -6.0625 C 2.390625 -7.039062 2.554688 -7.925781 2.890625 -8.71875 C 3.234375 -9.519531 3.726562 -10.195312 4.375 -10.75 C 5.019531 -11.300781 5.796875 -11.726562 6.703125 -12.03125 C 7.609375 -12.34375 8.628906 -12.5 9.765625 -12.5 L 15.984375 -12.5 L 15.984375 -14.203125 C 15.984375 -15.484375 15.554688 -16.484375 14.703125 -17.203125 C 13.859375 -17.921875 12.644531 -18.28125 11.0625 -18.28125 C 9.894531 -18.28125 8.898438 -18.066406 8.078125 -17.640625 C 7.265625 -17.210938 6.71875 -16.617188 6.4375 -15.859375 L 3.03125 -15.859375 C 3.382812 -17.503906 4.285156 -18.804688 5.734375 -19.765625 C 7.179688 -20.722656 8.976562 -21.203125 11.125 -21.203125 C 13.707031 -21.203125 15.726562 -20.601562 17.1875 -19.40625 C 18.65625 -18.207031 19.390625 -16.535156 19.390625 -14.390625 L 19.390625 0 L 16.28125 0 L 16.28125 -3.96875 L 15.984375 -3.96875 C 15.648438 -2.632812 14.875 -1.578125 13.65625 -0.796875 C 12.445312 -0.015625 10.972656 0.375 9.234375 0.375 C 7.140625 0.375 5.472656 -0.203125 4.234375 -1.359375 C 3.003906 -2.523438 2.390625 -4.09375 2.390625 -6.0625 Z M 10 -2.421875 C 10.851562 -2.421875 11.644531 -2.535156 12.375 -2.765625 C 13.113281 -2.992188 13.742188 -3.316406 14.265625 -3.734375 C 14.796875 -4.148438 15.210938 -4.632812 15.515625 -5.1875 C 15.828125 -5.738281 15.984375 -6.34375 15.984375 -7 L 15.984375 -9.84375 L 9.84375 -9.84375 C 8.582031 -9.84375 7.59375 -9.515625 6.875 -8.859375 C 6.15625 -8.203125 5.796875 -7.296875 5.796875 -6.140625 C 5.796875 -4.972656 6.160156 -4.0625 6.890625 -3.40625 C 7.617188 -2.75 8.65625 -2.421875 10 -2.421875 Z M 10 -2.421875 "></path></g></g></g><g fill="#ae81ff" fill-opacity="1"><g transform="translate(23.987475, 37.149034)"><g><path d="M 11.8125 -27.640625 L 11.8125 -6.0625 C 11.8125 -5.125 12.0625 -4.394531 12.5625 -3.875 C 13.070312 -3.363281 13.769531 -3.109375 14.65625 -3.109375 L 20.828125 -3.109375 L 20.828125 0 L 14.65625 0 C 12.707031 0 11.175781 -0.535156 10.0625 -1.609375 C 8.957031 -2.679688 8.40625 -4.164062 8.40625 -6.0625 L 8.40625 -24.53125 L 1.515625 -24.53125 L 1.515625 -27.640625 Z M 11.8125 -27.640625 "></path></g></g></g><g fill="#ae81ff" fill-opacity="1"><g transform="translate(46.69822, 37.149034)"><g><path d="M 3.03125 -13.0625 C 3.03125 -14.320312 3.195312 -15.457031 3.53125 -16.46875 C 3.875 -17.476562 4.347656 -18.328125 4.953125 -19.015625 C 5.566406 -19.710938 6.300781 -20.25 7.15625 -20.625 C 8.007812 -21.007812 8.96875 -21.203125 10.03125 -21.203125 C 11.570312 -21.203125 12.847656 -20.851562 13.859375 -20.15625 C 14.867188 -19.46875 15.535156 -18.488281 15.859375 -17.21875 L 16.171875 -17.21875 C 16.140625 -17.65625 16.113281 -18.085938 16.09375 -18.515625 C 16.039062 -18.890625 16.007812 -19.285156 16 -19.703125 C 15.988281 -20.117188 15.984375 -20.492188 15.984375 -20.828125 L 15.984375 -27.640625 L 19.390625 -27.640625 L 19.390625 0 L 16.171875 0 L 16.171875 -3.59375 L 15.859375 -3.59375 C 15.535156 -2.332031 14.867188 -1.351562 13.859375 -0.65625 C 12.847656 0.03125 11.570312 0.375 10.03125 0.375 C 8.96875 0.375 8.007812 0.1875 7.15625 -0.1875 C 6.300781 -0.5625 5.566406 -1.097656 4.953125 -1.796875 C 4.347656 -2.492188 3.875 -3.347656 3.53125 -4.359375 C 3.195312 -5.367188 3.03125 -6.503906 3.03125 -7.765625 Z M 11.3125 -2.578125 C 12.726562 -2.578125 13.859375 -3.039062 14.703125 -3.96875 C 15.554688 -4.90625 15.984375 -6.171875 15.984375 -7.765625 L 15.984375 -13.0625 C 15.984375 -14.65625 15.554688 -15.914062 14.703125 -16.84375 C 13.859375 -17.78125 12.726562 -18.25 11.3125 -18.25 C 9.78125 -18.25 8.582031 -17.789062 7.71875 -16.875 C 6.863281 -15.96875 6.4375 -14.695312 6.4375 -13.0625 L 6.4375 -7.765625 C 6.4375 -6.171875 6.867188 -4.90625 7.734375 -3.96875 C 8.609375 -3.039062 9.800781 -2.578125 11.3125 -2.578125 Z M 11.3125 -2.578125 "></path></g></g></g><g fill="#ae81ff" fill-opacity="1"><g transform="translate(69.408964, 37.149034)"><g><path d="M 11.359375 0.375 C 8.753906 0.375 6.710938 -0.328125 5.234375 -1.734375 C 3.765625 -3.148438 3.03125 -5.097656 3.03125 -7.578125 L 3.03125 -13.25 C 3.03125 -15.726562 3.765625 -17.671875 5.234375 -19.078125 C 6.710938 -20.492188 8.753906 -21.203125 11.359375 -21.203125 C 13.953125 -21.203125 15.988281 -20.492188 17.46875 -19.078125 C 18.945312 -17.671875 19.6875 -15.726562 19.6875 -13.25 L 19.6875 -9.421875 L 6.4375 -9.421875 L 6.4375 -7.765625 C 6.4375 -6.171875 6.867188 -4.921875 7.734375 -4.015625 C 8.609375 -3.109375 9.816406 -2.65625 11.359375 -2.65625 C 12.492188 -2.65625 13.476562 -2.828125 14.3125 -3.171875 C 15.144531 -3.523438 15.765625 -4.046875 16.171875 -4.734375 L 19.578125 -4.734375 C 19.148438 -3.140625 18.195312 -1.890625 16.71875 -0.984375 C 15.238281 -0.078125 13.453125 0.375 11.359375 0.375 Z M 16.28125 -12.265625 L 16.28125 -13.25 C 16.28125 -14.8125 15.847656 -16.019531 14.984375 -16.875 C 14.128906 -17.738281 12.921875 -18.171875 11.359375 -18.171875 C 9.796875 -18.171875 8.582031 -17.738281 7.71875 -16.875 C 6.863281 -16.019531 6.4375 -14.8125 6.4375 -13.25 L 6.4375 -12.265625 Z M 16.28125 -12.265625 "></path></g></g></g><g fill="#ae81ff" fill-opacity="1"><g transform="translate(92.119708, 37.149034)"><g><path d="M 4.234375 -20.828125 L 7.453125 -20.828125 L 7.453125 -17.21875 L 7.765625 -17.21875 C 8.085938 -18.457031 8.765625 -19.429688 9.796875 -20.140625 C 10.835938 -20.847656 12.113281 -21.203125 13.625 -21.203125 C 15.820312 -21.203125 17.546875 -20.515625 18.796875 -19.140625 C 20.046875 -17.765625 20.671875 -15.878906 20.671875 -13.484375 L 20.671875 -12.296875 L 17.265625 -12.296875 L 17.265625 -13.0625 C 17.265625 -14.695312 16.851562 -15.960938 16.03125 -16.859375 C 15.207031 -17.753906 14.039062 -18.203125 12.53125 -18.203125 C 11.039062 -18.203125 9.851562 -17.742188 8.96875 -16.828125 C 8.082031 -15.910156 7.640625 -14.65625 7.640625 -13.0625 L 7.640625 0 L 4.234375 0 Z M 4.234375 -20.828125 "></path></g></g></g><g fill="#fd971f" fill-opacity="1"><g transform="translate(114.830538, 37.149034)"><g><path d="M 2.34375 -20.828125 L 5.03125 -20.828125 L 5.03125 -17.75 L 5.296875 -17.75 C 5.398438 -18.863281 5.753906 -19.71875 6.359375 -20.3125 C 6.960938 -20.90625 7.769531 -21.203125 8.78125 -21.203125 C 9.789062 -21.203125 10.625 -20.90625 11.28125 -20.3125 C 11.9375 -19.71875 12.390625 -18.863281 12.640625 -17.75 L 12.828125 -17.75 C 12.929688 -18.863281 13.285156 -19.71875 13.890625 -20.3125 C 14.492188 -20.90625 15.300781 -21.203125 16.3125 -21.203125 C 17.601562 -21.203125 18.601562 -20.726562 19.3125 -19.78125 C 20.019531 -18.832031 20.375 -17.523438 20.375 -15.859375 L 20.375 0 L 17.421875 0 L 17.421875 -15.859375 C 17.421875 -16.742188 17.222656 -17.421875 16.828125 -17.890625 C 16.429688 -18.359375 15.867188 -18.59375 15.140625 -18.59375 C 13.597656 -18.59375 12.828125 -17.617188 12.828125 -15.671875 L 12.828125 0 L 9.875 0 L 9.875 -15.859375 C 9.875 -16.597656 9.703125 -17.238281 9.359375 -17.78125 C 9.023438 -18.320312 8.441406 -18.59375 7.609375 -18.59375 C 6.847656 -18.59375 6.253906 -18.3125 5.828125 -17.75 C 5.472656 -17.25 5.296875 -16.554688 5.296875 -15.671875 L 5.296875 0 L 2.34375 0 Z M 2.34375 -20.828125 "></path></g></g></g><g fill="#fd971f" fill-opacity="1"><g transform="translate(137.541282, 37.149034)"><g><path d="M 2.390625 -6.0625 C 2.390625 -7.039062 2.554688 -7.925781 2.890625 -8.71875 C 3.234375 -9.519531 3.726562 -10.195312 4.375 -10.75 C 5.019531 -11.300781 5.796875 -11.726562 6.703125 -12.03125 C 7.609375 -12.34375 8.628906 -12.5 9.765625 -12.5 L 15.984375 -12.5 L 15.984375 -14.203125 C 15.984375 -15.484375 15.554688 -16.484375 14.703125 -17.203125 C 13.859375 -17.921875 12.644531 -18.28125 11.0625 -18.28125 C 9.894531 -18.28125 8.898438 -18.066406 8.078125 -17.640625 C 7.265625 -17.210938 6.71875 -16.617188 6.4375 -15.859375 L 3.03125 -15.859375 C 3.382812 -17.503906 4.285156 -18.804688 5.734375 -19.765625 C 7.179688 -20.722656 8.976562 -21.203125 11.125 -21.203125 C 13.707031 -21.203125 15.726562 -20.601562 17.1875 -19.40625 C 18.65625 -18.207031 19.390625 -16.535156 19.390625 -14.390625 L 19.390625 0 L 16.28125 0 L 16.28125 -3.96875 L 15.984375 -3.96875 C 15.648438 -2.632812 14.875 -1.578125 13.65625 -0.796875 C 12.445312 -0.015625 10.972656 0.375 9.234375 0.375 C 7.140625 0.375 5.472656 -0.203125 4.234375 -1.359375 C 3.003906 -2.523438 2.390625 -4.09375 2.390625 -6.0625 Z M 10 -2.421875 C 10.851562 -2.421875 11.644531 -2.535156 12.375 -2.765625 C 13.113281 -2.992188 13.742188 -3.316406 14.265625 -3.734375 C 14.796875 -4.148438 15.210938 -4.632812 15.515625 -5.1875 C 15.828125 -5.738281 15.984375 -6.34375 15.984375 -7 L 15.984375 -9.84375 L 9.84375 -9.84375 C 8.582031 -9.84375 7.59375 -9.515625 6.875 -8.859375 C 6.15625 -8.203125 5.796875 -7.296875 5.796875 -6.140625 C 5.796875 -4.972656 6.160156 -4.0625 6.890625 -3.40625 C 7.617188 -2.75 8.65625 -2.421875 10 -2.421875 Z M 10 -2.421875 "></path></g></g></g><g fill="#fd971f" fill-opacity="1"><g transform="translate(160.252027, 37.149034)"><g><path d="M 3.328125 0 L 3.328125 -20.828125 L 6.546875 -20.828125 L 6.546875 -17.21875 L 6.859375 -17.21875 C 7.179688 -18.488281 7.835938 -19.46875 8.828125 -20.15625 C 9.828125 -20.851562 11.070312 -21.203125 12.5625 -21.203125 C 13.601562 -21.203125 14.546875 -21.023438 15.390625 -20.671875 C 16.234375 -20.316406 16.953125 -19.816406 17.546875 -19.171875 C 18.140625 -18.523438 18.597656 -17.753906 18.921875 -16.859375 C 19.253906 -15.960938 19.421875 -14.960938 19.421875 -13.859375 L 19.421875 0 L 16.015625 0 L 16.015625 -13.28125 C 16.015625 -14.875 15.609375 -16.113281 14.796875 -17 C 13.992188 -17.882812 12.875 -18.328125 11.4375 -18.328125 C 10 -18.328125 8.851562 -17.851562 8 -16.90625 C 7.15625 -15.957031 6.734375 -14.675781 6.734375 -13.0625 L 6.734375 0 Z M 3.328125 0 "></path></g></g></g><g fill="#ae81ff" fill-opacity="1"><g transform="translate(182.971708, 37.149034)"><g><path d="M 8.109375 -2.984375 C 8.109375 -3.972656 8.398438 -4.765625 8.984375 -5.359375 C 9.578125 -5.953125 10.367188 -6.25 11.359375 -6.25 C 12.335938 -6.25 13.125 -5.953125 13.71875 -5.359375 C 14.3125 -4.765625 14.609375 -3.972656 14.609375 -2.984375 C 14.609375 -1.972656 14.3125 -1.160156 13.71875 -0.546875 C 13.125 0.0664062 12.335938 0.375 11.359375 0.375 C 10.367188 0.375 9.578125 0.0664062 8.984375 -0.546875 C 8.398438 -1.160156 8.109375 -1.972656 8.109375 -2.984375 Z M 8.109375 -2.984375 "></path></g></g></g><g fill="#a6e22e" fill-opacity="1"><g transform="translate(205.689132, 37.149034)"><g><path d="M 2.390625 -6.0625 C 2.390625 -7.039062 2.554688 -7.925781 2.890625 -8.71875 C 3.234375 -9.519531 3.726562 -10.195312 4.375 -10.75 C 5.019531 -11.300781 5.796875 -11.726562 6.703125 -12.03125 C 7.609375 -12.34375 8.628906 -12.5 9.765625 -12.5 L 15.984375 -12.5 L 15.984375 -14.203125 C 15.984375 -15.484375 15.554688 -16.484375 14.703125 -17.203125 C 13.859375 -17.921875 12.644531 -18.28125 11.0625 -18.28125 C 9.894531 -18.28125 8.898438 -18.066406 8.078125 -17.640625 C 7.265625 -17.210938 6.71875 -16.617188 6.4375 -15.859375 L 3.03125 -15.859375 C 3.382812 -17.503906 4.285156 -18.804688 5.734375 -19.765625 C 7.179688 -20.722656 8.976562 -21.203125 11.125 -21.203125 C 13.707031 -21.203125 15.726562 -20.601562 17.1875 -19.40625 C 18.65625 -18.207031 19.390625 -16.535156 19.390625 -14.390625 L 19.390625 0 L 16.28125 0 L 16.28125 -3.96875 L 15.984375 -3.96875 C 15.648438 -2.632812 14.875 -1.578125 13.65625 -0.796875 C 12.445312 -0.015625 10.972656 0.375 9.234375 0.375 C 7.140625 0.375 5.472656 -0.203125 4.234375 -1.359375 C 3.003906 -2.523438 2.390625 -4.09375 2.390625 -6.0625 Z M 10 -2.421875 C 10.851562 -2.421875 11.644531 -2.535156 12.375 -2.765625 C 13.113281 -2.992188 13.742188 -3.316406 14.265625 -3.734375 C 14.796875 -4.148438 15.210938 -4.632812 15.515625 -5.1875 C 15.828125 -5.738281 15.984375 -6.34375 15.984375 -7 L 15.984375 -9.84375 L 9.84375 -9.84375 C 8.582031 -9.84375 7.59375 -9.515625 6.875 -8.859375 C 6.15625 -8.203125 5.796875 -7.296875 5.796875 -6.140625 C 5.796875 -4.972656 6.160156 -4.0625 6.890625 -3.40625 C 7.617188 -2.75 8.65625 -2.421875 10 -2.421875 Z M 10 -2.421875 "></path></g></g></g><g fill="#a6e22e" fill-opacity="1"><g transform="translate(228.399876, 37.149034)"><g><path d="M 3.59375 0 L 3.59375 -3.109375 L 11.171875 -3.109375 L 11.171875 -17.71875 L 4.546875 -17.71875 L 4.546875 -20.828125 L 14.578125 -20.828125 L 14.578125 -3.109375 L 20.828125 -3.109375 L 20.828125 0 Z M 11.921875 -28.96875 L 12.6875 -28.96875 C 13.414062 -28.96875 14.003906 -28.75 14.453125 -28.3125 C 14.910156 -27.882812 15.140625 -27.332031 15.140625 -26.65625 C 15.140625 -25.96875 14.910156 -25.421875 14.453125 -25.015625 C 14.003906 -24.617188 13.414062 -24.421875 12.6875 -24.421875 L 11.921875 -24.421875 C 11.191406 -24.421875 10.597656 -24.613281 10.140625 -25 C 9.691406 -25.394531 9.46875 -25.945312 9.46875 -26.65625 C 9.46875 -27.332031 9.691406 -27.882812 10.140625 -28.3125 C 10.597656 -28.75 11.191406 -28.96875 11.921875 -28.96875 Z M 11.921875 -28.96875 "></path></g></g></g></g></g></svg>