<svg xmlns="http://www.w3.org/2000/svg" xmlns:xlink="http://www.w3.org/1999/xlink" width="489" zoomAndPan="magnify" viewBox="0 0 366.75 427.499982" height="570" preserveAspectRatio="xMidYMid meet" version="1.0"><defs><g></g><clipPath id="19f493b8aa"><rect x="0" width="65" y="0" height="127"></rect></clipPath><clipPath id="c8979bac9d"><rect x="0" width="57" y="0" height="107"></rect></clipPath><clipPath id="64328ff82f"><rect x="0" width="190" y="0" height="127"></rect></clipPath><clipPath id="f8d29de609"><rect x="0" width="185" y="0" height="126"></rect></clipPath><clipPath id="6fb3559761"><rect x="0" width="91" y="0" height="182"></rect></clipPath><clipPath id="a24ccd6748"><rect x="0" width="113" y="0" height="226"></rect></clipPath></defs><g transform="matrix(1, 0, 0, 1, 150, 109)"><g clip-path="url(#19f493b8aa)"><g fill="#ffffff" fill-opacity="1"><g transform="translate(1.462374, 100.092382)"><g><path d="M 6.5625 -16.640625 C 6.5625 -19.347656 7.023438 -21.796875 7.953125 -23.984375 C 8.890625 -26.171875 10.242188 -28.023438 12.015625 -29.546875 C 13.785156 -31.078125 15.914062 -32.253906 18.40625 -33.078125 C 20.90625 -33.910156 23.71875 -34.328125 26.84375 -34.328125 L 43.90625 -34.328125 L 43.90625 -39.015625 C 43.90625 -42.554688 42.742188 -45.3125 40.421875 -47.28125 C 38.097656 -49.257812 34.75 -50.25 30.375 -50.25 C 27.1875 -50.25 24.460938 -49.660156 22.203125 -48.484375 C 19.953125 -47.304688 18.445312 -45.675781 17.6875 -43.59375 L 8.328125 -43.59375 C 9.296875 -48.101562 11.773438 -51.675781 15.765625 -54.3125 C 19.753906 -56.945312 24.695312 -58.265625 30.59375 -58.265625 C 37.664062 -58.265625 43.210938 -56.613281 47.234375 -53.3125 C 51.253906 -50.019531 53.265625 -45.425781 53.265625 -39.53125 L 53.265625 0 L 44.734375 0 L 44.734375 -10.921875 L 43.90625 -10.921875 C 43.007812 -7.242188 40.894531 -4.328125 37.5625 -2.171875 C 34.226562 -0.0234375 30.171875 1.046875 25.390625 1.046875 C 19.628906 1.046875 15.050781 -0.546875 11.65625 -3.734375 C 8.257812 -6.929688 6.5625 -11.234375 6.5625 -16.640625 Z M 27.46875 -6.65625 C 29.820312 -6.65625 32.003906 -6.96875 34.015625 -7.59375 C 36.035156 -8.21875 37.769531 -9.101562 39.21875 -10.25 C 40.675781 -11.394531 41.820312 -12.726562 42.65625 -14.25 C 43.488281 -15.78125 43.90625 -17.445312 43.90625 -19.25 L 43.90625 -27.046875 L 27.046875 -27.046875 C 23.578125 -27.046875 20.851562 -26.144531 18.875 -24.34375 C 16.90625 -22.539062 15.921875 -20.046875 15.921875 -16.859375 C 15.921875 -13.660156 16.925781 -11.160156 18.9375 -9.359375 C 20.945312 -7.554688 23.789062 -6.65625 27.46875 -6.65625 Z M 27.46875 -6.65625 "></path></g></g></g></g></g><g transform="matrix(1, 0, 0, 1, 217, 130)"><g clip-path="url(#c8979bac9d)"><g fill="#ffffff" fill-opacity="1"><g transform="translate(2.416685, 83.752481)"><g><path d="M 27.21875 -63.671875 L 27.21875 -13.953125 C 27.21875 -11.804688 27.796875 -10.132812 28.953125 -8.9375 C 30.117188 -7.75 31.71875 -7.15625 33.75 -7.15625 L 47.96875 -7.15625 L 47.96875 0 L 33.75 0 C 29.269531 0 25.75 -1.234375 23.1875 -3.703125 C 20.632812 -6.171875 19.359375 -9.585938 19.359375 -13.953125 L 19.359375 -56.515625 L 3.484375 -56.515625 L 3.484375 -63.671875 Z M 27.21875 -63.671875 "></path></g></g></g></g></g><g transform="matrix(1, 0, 0, 1, 88, 201)"><g clip-path="url(#64328ff82f)"><g fill="#ffffff" fill-opacity="1"><g transform="translate(1.496217, 100.185898)"><g><path d="M 8.328125 -35.890625 C 8.328125 -39.359375 8.796875 -42.476562 9.734375 -45.25 C 10.671875 -48.03125 11.96875 -50.375 13.625 -52.28125 C 15.289062 -54.1875 17.300781 -55.660156 19.65625 -56.703125 C 22.019531 -57.742188 24.660156 -58.265625 27.578125 -58.265625 C 31.804688 -58.265625 35.304688 -57.3125 38.078125 -55.40625 C 40.859375 -53.5 42.695312 -50.8125 43.59375 -47.34375 L 44.421875 -47.34375 C 44.359375 -48.519531 44.289062 -49.695312 44.21875 -50.875 C 44.082031 -51.914062 43.992188 -53.007812 43.953125 -54.15625 C 43.921875 -55.300781 43.90625 -56.320312 43.90625 -57.21875 L 43.90625 -75.953125 L 53.265625 -75.953125 L 53.265625 0 L 44.421875 0 L 44.421875 -9.890625 L 43.59375 -9.890625 C 42.695312 -6.421875 40.859375 -3.726562 38.078125 -1.8125 C 35.304688 0.09375 31.804688 1.046875 27.578125 1.046875 C 24.660156 1.046875 22.019531 0.523438 19.65625 -0.515625 C 17.300781 -1.554688 15.289062 -3.03125 13.625 -4.9375 C 11.96875 -6.84375 10.671875 -9.179688 9.734375 -11.953125 C 8.796875 -14.734375 8.328125 -17.859375 8.328125 -21.328125 Z M 31.109375 -7.078125 C 34.992188 -7.078125 38.097656 -8.359375 40.421875 -10.921875 C 42.742188 -13.492188 43.90625 -16.960938 43.90625 -21.328125 L 43.90625 -35.890625 C 43.90625 -40.265625 42.742188 -43.734375 40.421875 -46.296875 C 38.097656 -48.867188 34.992188 -50.15625 31.109375 -50.15625 C 26.878906 -50.15625 23.582031 -48.90625 21.21875 -46.40625 C 18.863281 -43.90625 17.6875 -40.398438 17.6875 -35.890625 L 17.6875 -21.328125 C 17.6875 -16.960938 18.882812 -13.492188 21.28125 -10.921875 C 23.675781 -8.359375 26.953125 -7.078125 31.109375 -7.078125 Z M 31.109375 -7.078125 "></path></g></g></g><g fill="#ffffff" fill-opacity="1"><g transform="translate(63.915629, 100.185898)"><g><path d="M 31.21875 1.046875 C 24.070312 1.046875 18.46875 -0.894531 14.40625 -4.78125 C 10.351562 -8.664062 8.328125 -14.007812 8.328125 -20.8125 L 8.328125 -36.421875 C 8.328125 -43.210938 10.351562 -48.550781 14.40625 -52.4375 C 18.46875 -56.320312 24.070312 -58.265625 31.21875 -58.265625 C 38.363281 -58.265625 43.960938 -56.320312 48.015625 -52.4375 C 52.078125 -48.550781 54.109375 -43.210938 54.109375 -36.421875 L 54.109375 -25.90625 L 17.6875 -25.90625 L 17.6875 -21.328125 C 17.6875 -16.960938 18.882812 -13.53125 21.28125 -11.03125 C 23.675781 -8.53125 26.988281 -7.28125 31.21875 -7.28125 C 34.332031 -7.28125 37.035156 -7.765625 39.328125 -8.734375 C 41.617188 -9.710938 43.316406 -11.132812 44.421875 -13 L 53.796875 -13 C 52.609375 -8.632812 49.984375 -5.203125 45.921875 -2.703125 C 41.867188 -0.203125 36.96875 1.046875 31.21875 1.046875 Z M 44.734375 -33.71875 L 44.734375 -36.421875 C 44.734375 -40.722656 43.554688 -44.050781 41.203125 -46.40625 C 38.847656 -48.757812 35.519531 -49.9375 31.21875 -49.9375 C 26.914062 -49.9375 23.582031 -48.757812 21.21875 -46.40625 C 18.863281 -44.050781 17.6875 -40.722656 17.6875 -36.421875 L 17.6875 -33.71875 Z M 44.734375 -33.71875 "></path></g></g></g><g fill="#ffffff" fill-opacity="1"><g transform="translate(126.335041, 100.185898)"><g><path d="M 11.65625 -57.21875 L 20.5 -57.21875 L 20.5 -47.34375 L 21.328125 -47.34375 C 22.234375 -50.738281 24.109375 -53.40625 26.953125 -55.34375 C 29.796875 -57.289062 33.296875 -58.265625 37.453125 -58.265625 C 43.492188 -58.265625 48.226562 -56.375 51.65625 -52.59375 C 55.09375 -48.8125 56.8125 -43.628906 56.8125 -37.046875 L 56.8125 -33.8125 L 47.453125 -33.8125 L 47.453125 -35.890625 C 47.453125 -40.398438 46.320312 -43.882812 44.0625 -46.34375 C 41.8125 -48.8125 38.601562 -50.046875 34.4375 -50.046875 C 30.34375 -50.046875 27.082031 -48.78125 24.65625 -46.25 C 22.226562 -43.71875 21.015625 -40.265625 21.015625 -35.890625 L 21.015625 0 L 11.65625 0 Z M 11.65625 -57.21875 "></path></g></g></g></g></g><g transform="matrix(1, 0, 0, 1, 94, 281)"><g clip-path="url(#f8d29de609)"><g fill="#fd971f" fill-opacity="1"><g transform="translate(0.491999, 100.563019)"><g><path d="M 6.328125 -56.109375 L 13.5625 -56.109375 L 13.5625 -47.84375 L 14.28125 -47.84375 C 14.550781 -50.832031 15.503906 -53.125 17.140625 -54.71875 C 18.773438 -56.320312 20.953125 -57.125 23.671875 -57.125 C 26.390625 -57.125 28.628906 -56.320312 30.390625 -54.71875 C 32.160156 -53.125 33.390625 -50.832031 34.078125 -47.84375 L 34.578125 -47.84375 C 34.847656 -50.832031 35.800781 -53.125 37.4375 -54.71875 C 39.070312 -56.320312 41.25 -57.125 43.96875 -57.125 C 47.4375 -57.125 50.125 -55.847656 52.03125 -53.296875 C 53.9375 -50.753906 54.890625 -47.238281 54.890625 -42.75 L 54.890625 0 L 46.921875 0 L 46.921875 -42.75 C 46.921875 -45.125 46.394531 -46.941406 45.34375 -48.203125 C 44.289062 -49.460938 42.78125 -50.09375 40.8125 -50.09375 C 36.65625 -50.09375 34.578125 -47.472656 34.578125 -42.234375 L 34.578125 0 L 26.625 0 L 26.625 -42.75 C 26.625 -44.71875 26.164062 -46.429688 25.25 -47.890625 C 24.332031 -49.359375 22.75 -50.09375 20.5 -50.09375 C 18.457031 -50.09375 16.859375 -49.34375 15.703125 -47.84375 C 14.753906 -46.488281 14.28125 -44.617188 14.28125 -42.234375 L 14.28125 0 L 6.328125 0 Z M 6.328125 -56.109375 "></path></g></g></g><g fill="#fd971f" fill-opacity="1"><g transform="translate(61.692905, 100.563019)"><g><path d="M 6.421875 -16.328125 C 6.421875 -18.972656 6.878906 -21.367188 7.796875 -23.515625 C 8.722656 -25.660156 10.050781 -27.476562 11.78125 -28.96875 C 13.519531 -30.46875 15.613281 -31.625 18.0625 -32.4375 C 20.507812 -33.257812 23.257812 -33.671875 26.3125 -33.671875 L 43.046875 -33.671875 L 43.046875 -38.25 C 43.046875 -41.71875 41.90625 -44.421875 39.625 -46.359375 C 37.351562 -48.304688 34.070312 -49.28125 29.78125 -49.28125 C 26.65625 -49.28125 23.988281 -48.703125 21.78125 -47.546875 C 19.570312 -46.390625 18.09375 -44.789062 17.34375 -42.75 L 8.15625 -42.75 C 9.113281 -47.164062 11.546875 -50.664062 15.453125 -53.25 C 19.367188 -55.832031 24.21875 -57.125 30 -57.125 C 36.925781 -57.125 42.363281 -55.507812 46.3125 -52.28125 C 50.257812 -49.050781 52.234375 -44.546875 52.234375 -38.765625 L 52.234375 0 L 43.859375 0 L 43.859375 -10.71875 L 43.046875 -10.71875 C 42.160156 -7.113281 40.085938 -4.253906 36.828125 -2.140625 C 33.566406 -0.0351562 29.585938 1.015625 24.890625 1.015625 C 19.242188 1.015625 14.753906 -0.546875 11.421875 -3.671875 C 8.085938 -6.796875 6.421875 -11.015625 6.421875 -16.328125 Z M 26.9375 -6.53125 C 29.25 -6.53125 31.390625 -6.832031 33.359375 -7.4375 C 35.328125 -8.050781 37.023438 -8.921875 38.453125 -10.046875 C 39.890625 -11.171875 41.015625 -12.476562 41.828125 -13.96875 C 42.640625 -15.46875 43.046875 -17.101562 43.046875 -18.875 L 43.046875 -26.53125 L 26.53125 -26.53125 C 23.125 -26.53125 20.453125 -25.644531 18.515625 -23.875 C 16.578125 -22.101562 15.609375 -19.65625 15.609375 -16.53125 C 15.609375 -13.394531 16.59375 -10.941406 18.5625 -9.171875 C 20.539062 -7.410156 23.332031 -6.53125 26.9375 -6.53125 Z M 26.9375 -6.53125 "></path></g></g></g><g fill="#fd971f" fill-opacity="1"><g transform="translate(122.893811, 100.563019)"><g><path d="M 8.984375 0 L 8.984375 -56.109375 L 17.65625 -56.109375 L 17.65625 -46.421875 L 18.46875 -46.421875 C 19.351562 -49.816406 21.132812 -52.445312 23.8125 -54.3125 C 26.5 -56.1875 29.851562 -57.125 33.875 -57.125 C 36.65625 -57.125 39.1875 -56.644531 41.46875 -55.6875 C 43.75 -54.738281 45.6875 -53.394531 47.28125 -51.65625 C 48.882812 -49.925781 50.125 -47.851562 51 -45.4375 C 51.882812 -43.03125 52.328125 -40.332031 52.328125 -37.34375 L 52.328125 0 L 43.15625 0 L 43.15625 -35.8125 C 43.15625 -40.09375 42.066406 -43.421875 39.890625 -45.796875 C 37.710938 -48.179688 34.6875 -49.375 30.8125 -49.375 C 26.9375 -49.375 23.859375 -48.097656 21.578125 -45.546875 C 19.296875 -42.992188 18.15625 -39.546875 18.15625 -35.203125 L 18.15625 0 Z M 8.984375 0 "></path></g></g></g></g></g><g transform="matrix(1, 0, 0, 1, 69, 93)"><g clip-path="url(#6fb3559761)"><g fill="#ae81ff" fill-opacity="1"><g transform="translate(0.909856, 146.219934)"><g><path d="M 12.546875 -22.875 L 58.296875 -45.15625 C 59.484375 -45.75 60.566406 -46.242188 61.546875 -46.640625 C 62.523438 -47.035156 63.410156 -47.332031 64.203125 -47.53125 C 64.992188 -47.820312 65.734375 -48.015625 66.421875 -48.109375 L 66.421875 -49.15625 C 65.734375 -49.25 64.992188 -49.441406 64.203125 -49.734375 C 62.523438 -50.035156 60.554688 -50.773438 58.296875 -51.953125 L 12.546875 -74.6875 L 12.546875 -87.8125 L 76.015625 -56.078125 L 76.015625 -41.328125 L 12.546875 -9.59375 Z M 12.546875 -22.875 "></path></g></g></g></g></g><g transform="matrix(1, 0, 0, 1, 157, 36)"><g clip-path="url(#a24ccd6748)"><g fill="#ae81ff" fill-opacity="1"><g transform="translate(0.885612, 180.974156)"><g><path d="M 11 4.578125 L 99.015625 4.578125 L 99.015625 18.34375 L 11 18.34375 Z M 11 4.578125 "></path></g></g></g></g></g></svg>