<svg xmlns="http://www.w3.org/2000/svg" xmlns:xlink="http://www.w3.org/1999/xlink" width="643" zoomAndPan="magnify" viewBox="0 0 482.25 181.5" height="242" preserveAspectRatio="xMidYMid meet" version="1.0"><defs><filter x="0%" y="0%" width="100%" height="100%" id="4b7fd91b71"><feColorMatrix values="0 0 0 0 1 0 0 0 0 1 0 0 0 0 1 0 0 0 1 0" color-interpolation-filters="sRGB"></feColorMatrix></filter><filter x="0%" y="0%" width="100%" height="100%" id="0eac52d4c7"><feColorMatrix values="0 0 0 0 1 0 0 0 0 1 0 0 0 0 1 0.2126 0.7152 0.0722 0 0" color-interpolation-filters="sRGB"></feColorMatrix></filter><g></g><mask id="b88be9762d"><g filter="url(#4b7fd91b71)"><g filter="url(#0eac52d4c7)" transform="matrix(0.239341, 0, 0, 0.239341, 10.340769, -0.239341)"><image x="0" y="0" width="1130" height="539" preserveAspectRatio="xMidYMid meet"></image></g></g></mask></defs><g fill="#ffffff" fill-opacity="1"><g transform="translate(16.453807, 75.844499)"><g><path d="M 18.699219 -16.496094 C 18.699219 -18.199219 18.246094 -19.523438 17.335938 -20.46875 C 16.421875 -21.410156 15.132812 -21.882812 13.460938 -21.882812 C 12.425781 -21.882812 11.410156 -21.726562 10.414062 -21.40625 C 9.421875 -21.089844 8.539062 -20.648438 7.769531 -20.078125 L 4.035156 -22.636719 C 5.023438 -23.824219 6.320312 -24.746094 7.933594 -25.40625 C 9.546875 -26.066406 11.339844 -26.394531 13.3125 -26.394531 C 15.464844 -26.394531 17.3125 -26.015625 18.851562 -25.253906 C 20.386719 -24.496094 21.558594 -23.390625 22.359375 -21.945312 C 23.164062 -20.5 23.5625 -18.757812 23.5625 -16.71875 L 23.5625 0 L 18.699219 0 Z M 12.332031 0.375 C 9.125 0.375 6.726562 -0.289062 5.140625 -1.617188 C 3.550781 -2.945312 2.757812 -4.964844 2.757812 -7.671875 C 2.757812 -10.246094 3.484375 -12.175781 4.9375 -13.460938 C 6.390625 -14.75 8.589844 -15.390625 11.53125 -15.390625 L 18.925781 -15.390625 L 19.277344 -11.28125 L 11.554688 -11.28125 C 10.21875 -11.28125 9.222656 -10.984375 8.5625 -10.390625 C 7.902344 -9.796875 7.570312 -8.890625 7.570312 -7.671875 C 7.570312 -6.351562 8.007812 -5.371094 8.886719 -4.738281 C 9.765625 -4.101562 11.097656 -3.785156 12.886719 -3.785156 C 14.839844 -3.785156 16.296875 -3.992188 17.257812 -4.410156 C 18.21875 -4.828125 18.699219 -5.480469 18.699219 -6.367188 L 19.226562 -2.707031 C 18.777344 -2.003906 18.21875 -1.429688 17.558594 -0.976562 C 16.898438 -0.527344 16.136719 -0.1875 15.265625 0.0390625 C 14.398438 0.261719 13.417969 0.375 12.332031 0.375 Z M 12.332031 0.375 "></path></g></g></g><g fill="#ffffff" fill-opacity="1"><g transform="translate(43.771587, 75.844499)"><g></g></g></g><g fill="#fd971f" fill-opacity="1"><g transform="translate(52.553576, 75.844499)"><g><path d="M 25.21875 -36.449219 L 30.332031 -36.449219 L 30.332031 0 L 25.21875 0 Z M 4.511719 -36.449219 L 9.625 -36.449219 L 9.625 0 L 4.511719 0 Z M 7.695312 -20.378906 L 27.925781 -20.378906 L 27.925781 -15.515625 L 7.695312 -15.515625 Z M 7.695312 -20.378906 "></path></g></g></g><g fill="#fd971f" fill-opacity="1"><g transform="translate(87.39001, 75.844499)"><g><path d="M 16.796875 0.375 C 14.105469 0.375 11.800781 -0.15625 9.890625 -1.214844 C 7.976562 -2.277344 6.519531 -3.824219 5.515625 -5.851562 C 4.511719 -7.882812 4.011719 -10.328125 4.011719 -13.1875 L 4.011719 -36.449219 L 9.125 -36.449219 L 9.125 -13.011719 C 9.125 -10.351562 9.792969 -8.296875 11.128906 -6.84375 C 12.46875 -5.390625 14.355469 -4.664062 16.796875 -4.664062 C 19.253906 -4.664062 21.152344 -5.390625 22.5 -6.84375 C 23.84375 -8.296875 24.515625 -10.351562 24.515625 -13.011719 L 24.515625 -36.449219 L 29.628906 -36.449219 L 29.628906 -13.1875 C 29.628906 -10.328125 29.128906 -7.882812 28.125 -5.851562 C 27.125 -3.824219 25.660156 -2.277344 23.738281 -1.214844 C 21.816406 -0.15625 19.503906 0.375 16.796875 0.375 Z M 16.796875 0.375 "></path></g></g></g><g fill="#fd971f" fill-opacity="1"><g transform="translate(121.023459, 75.844499)"><g><path d="M 30.707031 -36.449219 L 35.496094 -36.449219 L 35.496094 0 L 30.507812 0 L 30.507812 -27.296875 L 30.757812 -25.695312 L 21.785156 -5.0625 L 18.222656 -5.0625 L 9.25 -25.191406 L 9.5 -27.296875 L 9.5 0 L 4.511719 0 L 4.511719 -36.449219 L 9.300781 -36.449219 L 20.003906 -12.382812 Z M 30.707031 -36.449219 "></path></g></g></g><g fill="#fd971f" fill-opacity="1"><g transform="translate(161.022703, 75.844499)"><g><path d="M 14.4375 -36.449219 L 18.800781 -36.449219 L 32.238281 0 L 26.722656 0 L 16.621094 -29.40625 L 6.519531 0 L 1.003906 0 Z M 7.195312 -12.859375 L 26.371094 -12.859375 L 26.371094 -7.996094 L 7.195312 -7.996094 Z M 7.195312 -12.859375 "></path></g></g></g><g fill="#fd971f" fill-opacity="1"><g transform="translate(194.255157, 75.844499)"><g><path d="M 4.511719 -36.449219 L 9.148438 -36.449219 L 26.972656 -8.273438 L 26.371094 -7.621094 L 26.371094 -36.449219 L 31.433594 -36.449219 L 31.433594 -0.0234375 L 26.746094 -0.0234375 L 8.972656 -27.773438 L 9.574219 -28.425781 L 9.574219 -0.0234375 L 4.511719 -0.0234375 Z M 4.511719 -36.449219 "></path></g></g></g><g fill="#ffffff" fill-opacity="1"><g transform="translate(230.2009, 75.844499)"><g></g></g></g><g fill="#ffffff" fill-opacity="1"><g transform="translate(238.972664, 75.844499)"><g><path d="M 18.699219 -16.496094 C 18.699219 -18.199219 18.246094 -19.523438 17.335938 -20.46875 C 16.421875 -21.410156 15.132812 -21.882812 13.460938 -21.882812 C 12.425781 -21.882812 11.410156 -21.726562 10.414062 -21.40625 C 9.421875 -21.089844 8.539062 -20.648438 7.769531 -20.078125 L 4.035156 -22.636719 C 5.023438 -23.824219 6.320312 -24.746094 7.933594 -25.40625 C 9.546875 -26.066406 11.339844 -26.394531 13.3125 -26.394531 C 15.464844 -26.394531 17.3125 -26.015625 18.851562 -25.253906 C 20.386719 -24.496094 21.558594 -23.390625 22.359375 -21.945312 C 23.164062 -20.5 23.5625 -18.757812 23.5625 -16.71875 L 23.5625 0 L 18.699219 0 Z M 12.332031 0.375 C 9.125 0.375 6.726562 -0.289062 5.140625 -1.617188 C 3.550781 -2.945312 2.757812 -4.964844 2.757812 -7.671875 C 2.757812 -10.246094 3.484375 -12.175781 4.9375 -13.460938 C 6.390625 -14.75 8.589844 -15.390625 11.53125 -15.390625 L 18.925781 -15.390625 L 19.277344 -11.28125 L 11.554688 -11.28125 C 10.21875 -11.28125 9.222656 -10.984375 8.5625 -10.390625 C 7.902344 -9.796875 7.570312 -8.890625 7.570312 -7.671875 C 7.570312 -6.351562 8.007812 -5.371094 8.886719 -4.738281 C 9.765625 -4.101562 11.097656 -3.785156 12.886719 -3.785156 C 14.839844 -3.785156 16.296875 -3.992188 17.257812 -4.410156 C 18.21875 -4.828125 18.699219 -5.480469 18.699219 -6.367188 L 19.226562 -2.707031 C 18.777344 -2.003906 18.21875 -1.429688 17.558594 -0.976562 C 16.898438 -0.527344 16.136719 -0.1875 15.265625 0.0390625 C 14.398438 0.261719 13.417969 0.375 12.332031 0.375 Z M 12.332031 0.375 "></path></g></g></g><g fill="#ffffff" fill-opacity="1"><g transform="translate(266.290444, 75.844499)"><g><path d="M 4.011719 -26.019531 L 9.125 -26.019531 L 9.125 10.578125 L 4.011719 10.578125 Z M 15.667969 0.375 C 14.046875 0.375 12.632812 -0.0117188 11.429688 -0.789062 C 10.226562 -1.566406 9.34375 -2.664062 8.773438 -4.085938 L 9.125 -9.527344 C 9.125 -8.40625 9.324219 -7.453125 9.726562 -6.667969 C 10.128906 -5.882812 10.707031 -5.28125 11.46875 -4.863281 C 12.230469 -4.445312 13.152344 -4.238281 14.238281 -4.238281 C 15.925781 -4.238281 17.234375 -4.75 18.160156 -5.777344 C 19.089844 -6.804688 19.554688 -8.253906 19.554688 -10.128906 L 19.554688 -15.765625 C 19.554688 -17.671875 19.089844 -19.152344 18.160156 -20.203125 C 17.234375 -21.257812 15.925781 -21.785156 14.238281 -21.785156 C 13.152344 -21.785156 12.230469 -21.582031 11.46875 -21.183594 C 10.707031 -20.78125 10.128906 -20.191406 9.726562 -19.414062 C 9.324219 -18.636719 9.125 -17.707031 9.125 -16.621094 L 8.597656 -21.632812 C 9.382812 -23.152344 10.410156 -24.328125 11.679688 -25.15625 C 12.953125 -25.984375 14.363281 -26.394531 15.917969 -26.394531 C 17.757812 -26.394531 19.332031 -25.984375 20.644531 -25.15625 C 21.957031 -24.328125 22.953125 -23.121094 23.640625 -21.53125 C 24.324219 -19.945312 24.667969 -18.03125 24.667969 -15.792969 L 24.667969 -10.128906 C 24.667969 -7.921875 24.316406 -6.03125 23.613281 -4.460938 C 22.910156 -2.890625 21.882812 -1.691406 20.53125 -0.863281 C 19.175781 -0.0390625 17.554688 0.375 15.667969 0.375 Z M 15.667969 0.375 "></path></g></g></g><g fill="#ffffff" fill-opacity="1"><g transform="translate(294.209715, 75.844499)"><g><path d="M 4.011719 -26.019531 L 9.125 -26.019531 L 9.125 10.578125 L 4.011719 10.578125 Z M 15.667969 0.375 C 14.046875 0.375 12.632812 -0.0117188 11.429688 -0.789062 C 10.226562 -1.566406 9.34375 -2.664062 8.773438 -4.085938 L 9.125 -9.527344 C 9.125 -8.40625 9.324219 -7.453125 9.726562 -6.667969 C 10.128906 -5.882812 10.707031 -5.28125 11.46875 -4.863281 C 12.230469 -4.445312 13.152344 -4.238281 14.238281 -4.238281 C 15.925781 -4.238281 17.234375 -4.75 18.160156 -5.777344 C 19.089844 -6.804688 19.554688 -8.253906 19.554688 -10.128906 L 19.554688 -15.765625 C 19.554688 -17.671875 19.089844 -19.152344 18.160156 -20.203125 C 17.234375 -21.257812 15.925781 -21.785156 14.238281 -21.785156 C 13.152344 -21.785156 12.230469 -21.582031 11.46875 -21.183594 C 10.707031 -20.78125 10.128906 -20.191406 9.726562 -19.414062 C 9.324219 -18.636719 9.125 -17.707031 9.125 -16.621094 L 8.597656 -21.632812 C 9.382812 -23.152344 10.410156 -24.328125 11.679688 -25.15625 C 12.953125 -25.984375 14.363281 -26.394531 15.917969 -26.394531 C 17.757812 -26.394531 19.332031 -25.984375 20.644531 -25.15625 C 21.957031 -24.328125 22.953125 -23.121094 23.640625 -21.53125 C 24.324219 -19.945312 24.667969 -18.03125 24.667969 -15.792969 L 24.667969 -10.128906 C 24.667969 -7.921875 24.316406 -6.03125 23.613281 -4.460938 C 22.910156 -2.890625 21.882812 -1.691406 20.53125 -0.863281 C 19.175781 -0.0390625 17.554688 0.375 15.667969 0.375 Z M 15.667969 0.375 "></path></g></g></g><g fill="#ffffff" fill-opacity="1"><g transform="translate(322.128987, 75.844499)"><g><path d="M 4.011719 -26.019531 L 9.125 -26.019531 L 9.125 0 L 4.011719 0 Z M 18.324219 -19.855469 C 17.875 -20.40625 17.304688 -20.824219 16.621094 -21.105469 C 15.933594 -21.390625 15.140625 -21.53125 14.238281 -21.53125 C 12.617188 -21.53125 11.359375 -21.085938 10.464844 -20.191406 C 9.570312 -19.296875 9.125 -18.058594 9.125 -16.46875 L 8.597656 -21.484375 C 9.398438 -23.039062 10.4375 -24.246094 11.707031 -25.105469 C 12.976562 -25.964844 14.378906 -26.394531 15.917969 -26.394531 C 17.105469 -26.394531 18.179688 -26.226562 19.140625 -25.882812 C 20.101562 -25.539062 20.941406 -25.035156 21.660156 -24.367188 Z M 18.324219 -19.855469 "></path></g></g></g><g fill="#ffffff" fill-opacity="1"><g transform="translate(343.531976, 75.844499)"><g><path d="M 13.988281 0.375 C 11.730469 0.375 9.800781 -0.0664062 8.195312 -0.953125 C 6.59375 -1.839844 5.367188 -3.128906 4.523438 -4.824219 C 3.679688 -6.523438 3.257812 -8.566406 3.257812 -10.953125 L 3.257812 -15.191406 C 3.257812 -17.546875 3.679688 -19.566406 4.523438 -21.246094 C 5.367188 -22.925781 6.59375 -24.203125 8.195312 -25.082031 C 9.800781 -25.957031 11.730469 -26.394531 13.988281 -26.394531 C 16.242188 -26.394531 18.175781 -25.957031 19.777344 -25.082031 C 21.382812 -24.203125 22.605469 -22.925781 23.449219 -21.246094 C 24.292969 -19.566406 24.714844 -17.546875 24.714844 -15.191406 L 24.714844 -10.878906 C 24.714844 -8.507812 24.292969 -6.480469 23.449219 -4.800781 C 22.605469 -3.121094 21.382812 -1.839844 19.777344 -0.953125 C 18.175781 -0.0664062 16.242188 0.375 13.988281 0.375 Z M 13.988281 -4.488281 C 15.777344 -4.488281 17.160156 -5.046875 18.136719 -6.167969 C 19.113281 -7.285156 19.601562 -8.855469 19.601562 -10.878906 L 19.601562 -15.191406 C 19.601562 -17.214844 19.113281 -18.777344 18.136719 -19.878906 C 17.160156 -20.980469 15.777344 -21.53125 13.988281 -21.53125 C 12.199219 -21.53125 10.816406 -20.980469 9.839844 -19.878906 C 8.863281 -18.777344 8.371094 -17.214844 8.371094 -15.191406 L 8.371094 -10.878906 C 8.371094 -8.855469 8.863281 -7.285156 9.839844 -6.167969 C 10.816406 -5.046875 12.199219 -4.488281 13.988281 -4.488281 Z M 13.988281 -4.488281 "></path></g></g></g><g fill="#ffffff" fill-opacity="1"><g transform="translate(371.501372, 75.844499)"><g><path d="M 18.699219 -16.496094 C 18.699219 -18.199219 18.246094 -19.523438 17.335938 -20.46875 C 16.421875 -21.410156 15.132812 -21.882812 13.460938 -21.882812 C 12.425781 -21.882812 11.410156 -21.726562 10.414062 -21.40625 C 9.421875 -21.089844 8.539062 -20.648438 7.769531 -20.078125 L 4.035156 -22.636719 C 5.023438 -23.824219 6.320312 -24.746094 7.933594 -25.40625 C 9.546875 -26.066406 11.339844 -26.394531 13.3125 -26.394531 C 15.464844 -26.394531 17.3125 -26.015625 18.851562 -25.253906 C 20.386719 -24.496094 21.558594 -23.390625 22.359375 -21.945312 C 23.164062 -20.5 23.5625 -18.757812 23.5625 -16.71875 L 23.5625 0 L 18.699219 0 Z M 12.332031 0.375 C 9.125 0.375 6.726562 -0.289062 5.140625 -1.617188 C 3.550781 -2.945312 2.757812 -4.964844 2.757812 -7.671875 C 2.757812 -10.246094 3.484375 -12.175781 4.9375 -13.460938 C 6.390625 -14.75 8.589844 -15.390625 11.53125 -15.390625 L 18.925781 -15.390625 L 19.277344 -11.28125 L 11.554688 -11.28125 C 10.21875 -11.28125 9.222656 -10.984375 8.5625 -10.390625 C 7.902344 -9.796875 7.570312 -8.890625 7.570312 -7.671875 C 7.570312 -6.351562 8.007812 -5.371094 8.886719 -4.738281 C 9.765625 -4.101562 11.097656 -3.785156 12.886719 -3.785156 C 14.839844 -3.785156 16.296875 -3.992188 17.257812 -4.410156 C 18.21875 -4.828125 18.699219 -5.480469 18.699219 -6.367188 L 19.226562 -2.707031 C 18.777344 -2.003906 18.21875 -1.429688 17.558594 -0.976562 C 16.898438 -0.527344 16.136719 -0.1875 15.265625 0.0390625 C 14.398438 0.261719 13.417969 0.375 12.332031 0.375 Z M 12.332031 0.375 "></path></g></g></g><g fill="#ffffff" fill-opacity="1"><g transform="translate(398.819151, 75.844499)"><g><path d="M 14.515625 0.375 C 12.140625 0.375 10.113281 -0.0664062 8.433594 -0.953125 C 6.753906 -1.839844 5.472656 -3.125 4.585938 -4.8125 C 3.703125 -6.5 3.257812 -8.539062 3.257812 -10.929688 L 3.257812 -15.214844 C 3.257812 -17.574219 3.703125 -19.585938 4.585938 -21.257812 C 5.472656 -22.929688 6.753906 -24.203125 8.433594 -25.082031 C 10.113281 -25.957031 12.140625 -26.394531 14.515625 -26.394531 C 15.867188 -26.394531 17.140625 -26.234375 18.335938 -25.90625 C 19.53125 -25.582031 20.605469 -25.109375 21.558594 -24.492188 C 22.511719 -23.871094 23.304688 -23.121094 23.941406 -22.234375 L 20.253906 -18.925781 C 19.519531 -19.761719 18.660156 -20.40625 17.671875 -20.855469 C 16.6875 -21.308594 15.660156 -21.53125 14.589844 -21.53125 C 12.617188 -21.53125 11.089844 -20.980469 10.003906 -19.878906 C 8.914062 -18.777344 8.371094 -17.222656 8.371094 -15.214844 L 8.371094 -10.929688 C 8.371094 -8.875 8.910156 -7.285156 9.988281 -6.167969 C 11.066406 -5.046875 12.601562 -4.488281 14.589844 -4.488281 C 15.675781 -4.488281 16.710938 -4.730469 17.699219 -5.214844 C 18.683594 -5.699219 19.535156 -6.382812 20.253906 -7.269531 L 23.941406 -3.710938 C 23.289062 -2.839844 22.484375 -2.101562 21.53125 -1.492188 C 20.582031 -0.882812 19.507812 -0.417969 18.3125 -0.101562 C 17.117188 0.21875 15.851562 0.375 14.515625 0.375 Z M 14.515625 0.375 "></path></g></g></g><g fill="#ffffff" fill-opacity="1"><g transform="translate(424.382578, 75.844499)"><g><path d="M 4.011719 -36.449219 L 9.125 -36.449219 L 9.125 0 L 4.011719 0 Z M 19.804688 -15.765625 C 19.804688 -17.605469 19.328125 -19.027344 18.375 -20.027344 C 17.421875 -21.03125 16.085938 -21.53125 14.363281 -21.53125 C 12.691406 -21.53125 11.402344 -21.097656 10.492188 -20.230469 C 9.578125 -19.359375 9.125 -18.132812 9.125 -16.542969 L 8.597656 -21.558594 C 9.398438 -23.09375 10.449219 -24.285156 11.746094 -25.128906 C 13.039062 -25.972656 14.472656 -26.394531 16.042969 -26.394531 C 18.867188 -26.394531 21.050781 -25.472656 22.597656 -23.625 C 24.144531 -21.78125 24.917969 -19.167969 24.917969 -15.792969 L 24.917969 0 L 19.804688 0 Z M 19.804688 -15.765625 "></path></g></g></g><g fill="#ffffff" fill-opacity="1"><g transform="translate(16.453807, 147.646694)"><g><path d="M 10.777344 0.125 C 8.671875 0.125 7.132812 -0.457031 6.152344 -1.617188 C 5.175781 -2.777344 4.6875 -4.496094 4.6875 -6.769531 L 4.6875 -33.589844 L 9.800781 -33.589844 L 9.800781 -6.71875 C 9.800781 -6.082031 9.925781 -5.59375 10.175781 -5.25 C 10.429688 -4.910156 10.796875 -4.738281 11.28125 -4.738281 L 13.738281 -4.738281 L 13.738281 0.125 Z M 2.003906 -26.019531 L 13.738281 -26.019531 L 13.738281 -21.40625 L 2.003906 -21.40625 Z M 2.003906 -26.019531 "></path></g></g></g><g fill="#ffffff" fill-opacity="1"><g transform="translate(33.195345, 147.646694)"><g><path d="M 13.988281 0.375 C 11.730469 0.375 9.800781 -0.0664062 8.195312 -0.953125 C 6.59375 -1.839844 5.367188 -3.128906 4.523438 -4.824219 C 3.679688 -6.523438 3.257812 -8.566406 3.257812 -10.953125 L 3.257812 -15.191406 C 3.257812 -17.546875 3.679688 -19.566406 4.523438 -21.246094 C 5.367188 -22.925781 6.59375 -24.203125 8.195312 -25.082031 C 9.800781 -25.957031 11.730469 -26.394531 13.988281 -26.394531 C 16.242188 -26.394531 18.175781 -25.957031 19.777344 -25.082031 C 21.382812 -24.203125 22.605469 -22.925781 23.449219 -21.246094 C 24.292969 -19.566406 24.714844 -17.546875 24.714844 -15.191406 L 24.714844 -10.878906 C 24.714844 -8.507812 24.292969 -6.480469 23.449219 -4.800781 C 22.605469 -3.121094 21.382812 -1.839844 19.777344 -0.953125 C 18.175781 -0.0664062 16.242188 0.375 13.988281 0.375 Z M 13.988281 -4.488281 C 15.777344 -4.488281 17.160156 -5.046875 18.136719 -6.167969 C 19.113281 -7.285156 19.601562 -8.855469 19.601562 -10.878906 L 19.601562 -15.191406 C 19.601562 -17.214844 19.113281 -18.777344 18.136719 -19.878906 C 17.160156 -20.980469 15.777344 -21.53125 13.988281 -21.53125 C 12.199219 -21.53125 10.816406 -20.980469 9.839844 -19.878906 C 8.863281 -18.777344 8.371094 -17.214844 8.371094 -15.191406 L 8.371094 -10.878906 C 8.371094 -8.855469 8.863281 -7.285156 9.839844 -6.167969 C 10.816406 -5.046875 12.199219 -4.488281 13.988281 -4.488281 Z M 13.988281 -4.488281 "></path></g></g></g><g fill="#ffffff" fill-opacity="1"><g transform="translate(61.164742, 147.646694)"><g></g></g></g><g fill="#ffffff" fill-opacity="1"><g transform="translate(69.936505, 147.646694)"><g><path d="M 10.777344 0.125 C 8.671875 0.125 7.132812 -0.457031 6.152344 -1.617188 C 5.175781 -2.777344 4.6875 -4.496094 4.6875 -6.769531 L 4.6875 -33.589844 L 9.800781 -33.589844 L 9.800781 -6.71875 C 9.800781 -6.082031 9.925781 -5.59375 10.175781 -5.25 C 10.429688 -4.910156 10.796875 -4.738281 11.28125 -4.738281 L 13.738281 -4.738281 L 13.738281 0.125 Z M 2.003906 -26.019531 L 13.738281 -26.019531 L 13.738281 -21.40625 L 2.003906 -21.40625 Z M 2.003906 -26.019531 "></path></g></g></g><g fill="#ffffff" fill-opacity="1"><g transform="translate(86.678044, 147.646694)"><g><path d="M 4.011719 -36.449219 L 9.125 -36.449219 L 9.125 0 L 4.011719 0 Z M 19.804688 -15.765625 C 19.804688 -17.605469 19.328125 -19.027344 18.375 -20.027344 C 17.421875 -21.03125 16.085938 -21.53125 14.363281 -21.53125 C 12.691406 -21.53125 11.402344 -21.097656 10.492188 -20.230469 C 9.578125 -19.359375 9.125 -18.132812 9.125 -16.542969 L 8.597656 -21.558594 C 9.398438 -23.09375 10.449219 -24.285156 11.746094 -25.128906 C 13.039062 -25.972656 14.472656 -26.394531 16.042969 -26.394531 C 18.867188 -26.394531 21.050781 -25.472656 22.597656 -23.625 C 24.144531 -21.78125 24.917969 -19.167969 24.917969 -15.792969 L 24.917969 0 L 19.804688 0 Z M 19.804688 -15.765625 "></path></g></g></g><g fill="#ffffff" fill-opacity="1"><g transform="translate(115.34918, 147.646694)"><g><path d="M 14.664062 0.375 C 12.257812 0.375 10.203125 -0.0742188 8.496094 -0.976562 C 6.792969 -1.878906 5.492188 -3.203125 4.601562 -4.949219 C 3.707031 -6.695312 3.257812 -8.808594 3.257812 -11.28125 L 3.257812 -14.214844 C 3.257812 -16.785156 3.6875 -18.984375 4.550781 -20.804688 C 5.410156 -22.628906 6.660156 -24.015625 8.296875 -24.96875 C 9.933594 -25.921875 11.90625 -26.394531 14.214844 -26.394531 C 16.386719 -26.394531 18.242188 -25.851562 19.777344 -24.765625 C 21.316406 -23.679688 22.488281 -22.109375 23.300781 -20.054688 C 24.109375 -18 24.515625 -15.535156 24.515625 -12.660156 L 24.515625 -10.953125 L 6.96875 -10.953125 L 6.96875 -15.066406 L 19.652344 -15.066406 C 19.503906 -17.1875 18.957031 -18.839844 18.011719 -20.015625 C 17.066406 -21.195312 15.800781 -21.785156 14.214844 -21.785156 C 12.273438 -21.785156 10.773438 -21.148438 9.714844 -19.878906 C 8.652344 -18.609375 8.121094 -16.8125 8.121094 -14.488281 L 8.121094 -11.179688 C 8.121094 -9.023438 8.691406 -7.371094 9.828125 -6.214844 C 10.964844 -5.0625 12.574219 -4.488281 14.664062 -4.488281 C 15.699219 -4.488281 16.726562 -4.695312 17.746094 -5.113281 C 18.765625 -5.53125 19.679688 -6.117188 20.480469 -6.867188 L 23.839844 -3.507812 C 22.550781 -2.273438 21.105469 -1.316406 19.503906 -0.640625 C 17.898438 0.0390625 16.285156 0.375 14.664062 0.375 Z M 14.664062 0.375 "></path></g></g></g><g fill="#ffffff" fill-opacity="1"><g transform="translate(142.867457, 147.646694)"><g></g></g></g><g fill="#a6e22e" fill-opacity="1"><g transform="translate(151.643877, 147.646694)"><g><path d="M 18.699219 -16.496094 C 18.699219 -18.199219 18.246094 -19.523438 17.335938 -20.46875 C 16.421875 -21.410156 15.132812 -21.882812 13.460938 -21.882812 C 12.425781 -21.882812 11.410156 -21.726562 10.414062 -21.40625 C 9.421875 -21.089844 8.539062 -20.648438 7.769531 -20.078125 L 4.035156 -22.636719 C 5.023438 -23.824219 6.320312 -24.746094 7.933594 -25.40625 C 9.546875 -26.066406 11.339844 -26.394531 13.3125 -26.394531 C 15.464844 -26.394531 17.3125 -26.015625 18.851562 -25.253906 C 20.386719 -24.496094 21.558594 -23.390625 22.359375 -21.945312 C 23.164062 -20.5 23.5625 -18.757812 23.5625 -16.71875 L 23.5625 0 L 18.699219 0 Z M 12.332031 0.375 C 9.125 0.375 6.726562 -0.289062 5.140625 -1.617188 C 3.550781 -2.945312 2.757812 -4.964844 2.757812 -7.671875 C 2.757812 -10.246094 3.484375 -12.175781 4.9375 -13.460938 C 6.390625 -14.75 8.589844 -15.390625 11.53125 -15.390625 L 18.925781 -15.390625 L 19.277344 -11.28125 L 11.554688 -11.28125 C 10.21875 -11.28125 9.222656 -10.984375 8.5625 -10.390625 C 7.902344 -9.796875 7.570312 -8.890625 7.570312 -7.671875 C 7.570312 -6.351562 8.007812 -5.371094 8.886719 -4.738281 C 9.765625 -4.101562 11.097656 -3.785156 12.886719 -3.785156 C 14.839844 -3.785156 16.296875 -3.992188 17.257812 -4.410156 C 18.21875 -4.828125 18.699219 -5.480469 18.699219 -6.367188 L 19.226562 -2.707031 C 18.777344 -2.003906 18.21875 -1.429688 17.558594 -0.976562 C 16.898438 -0.527344 16.136719 -0.1875 15.265625 0.0390625 C 14.398438 0.261719 13.417969 0.375 12.332031 0.375 Z M 12.332031 0.375 "></path></g></g></g><g fill="#a6e22e" fill-opacity="1"><g transform="translate(178.961656, 147.646694)"><g><path d="M 4.011719 -36.449219 L 9.125 -36.449219 L 9.125 -31.335938 L 4.011719 -31.335938 Z M 4.011719 -26.019531 L 9.125 -26.019531 L 9.125 0 L 4.011719 0 Z M 4.011719 -26.019531 "></path></g></g></g><g fill="#ffffff" fill-opacity="1"><g transform="translate(191.845627, 147.646694)"><g></g></g></g><g fill="#ffffff" fill-opacity="1"><g transform="translate(200.617391, 147.646694)"><g><path d="M 4.761719 -29.554688 C 4.761719 -31.859375 5.292969 -33.585938 6.355469 -34.730469 C 7.414062 -35.875 9.050781 -36.449219 11.253906 -36.449219 L 15.015625 -36.449219 L 15.015625 -31.585938 L 11.355469 -31.585938 C 10.871094 -31.585938 10.503906 -31.402344 10.253906 -31.035156 C 10.003906 -30.667969 9.875 -30.191406 9.875 -29.605469 L 9.875 0 L 4.761719 0 Z M 2.003906 -26.019531 L 15.015625 -26.019531 L 15.015625 -21.660156 L 2.003906 -21.660156 Z M 2.003906 -26.019531 "></path></g></g></g><g fill="#ffffff" fill-opacity="1"><g transform="translate(216.882747, 147.646694)"><g><path d="M 19.703125 -26.019531 L 24.792969 -26.019531 L 24.792969 0 L 19.703125 0 Z M 9.125 -10.203125 C 9.125 -8.382812 9.589844 -6.972656 10.515625 -5.980469 C 11.445312 -4.984375 12.75 -4.488281 14.4375 -4.488281 C 16.109375 -4.488281 17.40625 -4.929688 18.324219 -5.816406 C 19.242188 -6.703125 19.703125 -7.964844 19.703125 -9.601562 L 20.054688 -4.160156 C 19.519531 -2.875 18.648438 -1.796875 17.445312 -0.925781 C 16.242188 -0.0585938 14.765625 0.375 13.011719 0.375 C 10.136719 0.375 7.917969 -0.546875 6.355469 -2.394531 C 4.792969 -4.242188 4.011719 -6.84375 4.011719 -10.203125 L 4.011719 -26.019531 L 9.125 -26.019531 Z M 9.125 -10.203125 "></path></g></g></g><g fill="#ffffff" fill-opacity="1"><g transform="translate(245.428573, 147.646694)"><g><path d="M 10.777344 0.125 C 8.671875 0.125 7.132812 -0.457031 6.152344 -1.617188 C 5.175781 -2.777344 4.6875 -4.496094 4.6875 -6.769531 L 4.6875 -33.589844 L 9.800781 -33.589844 L 9.800781 -6.71875 C 9.800781 -6.082031 9.925781 -5.59375 10.175781 -5.25 C 10.429688 -4.910156 10.796875 -4.738281 11.28125 -4.738281 L 13.738281 -4.738281 L 13.738281 0.125 Z M 2.003906 -26.019531 L 13.738281 -26.019531 L 13.738281 -21.40625 L 2.003906 -21.40625 Z M 2.003906 -26.019531 "></path></g></g></g><g fill="#ffffff" fill-opacity="1"><g transform="translate(262.170111, 147.646694)"><g><path d="M 19.703125 -26.019531 L 24.792969 -26.019531 L 24.792969 0 L 19.703125 0 Z M 9.125 -10.203125 C 9.125 -8.382812 9.589844 -6.972656 10.515625 -5.980469 C 11.445312 -4.984375 12.75 -4.488281 14.4375 -4.488281 C 16.109375 -4.488281 17.40625 -4.929688 18.324219 -5.816406 C 19.242188 -6.703125 19.703125 -7.964844 19.703125 -9.601562 L 20.054688 -4.160156 C 19.519531 -2.875 18.648438 -1.796875 17.445312 -0.925781 C 16.242188 -0.0585938 14.765625 0.375 13.011719 0.375 C 10.136719 0.375 7.917969 -0.546875 6.355469 -2.394531 C 4.792969 -4.242188 4.011719 -6.84375 4.011719 -10.203125 L 4.011719 -26.019531 L 9.125 -26.019531 Z M 9.125 -10.203125 "></path></g></g></g><g fill="#ffffff" fill-opacity="1"><g transform="translate(290.715938, 147.646694)"><g><path d="M 4.011719 -26.019531 L 9.125 -26.019531 L 9.125 0 L 4.011719 0 Z M 18.324219 -19.855469 C 17.875 -20.40625 17.304688 -20.824219 16.621094 -21.105469 C 15.933594 -21.390625 15.140625 -21.53125 14.238281 -21.53125 C 12.617188 -21.53125 11.359375 -21.085938 10.464844 -20.191406 C 9.570312 -19.296875 9.125 -18.058594 9.125 -16.46875 L 8.597656 -21.484375 C 9.398438 -23.039062 10.4375 -24.246094 11.707031 -25.105469 C 12.976562 -25.964844 14.378906 -26.394531 15.917969 -26.394531 C 17.105469 -26.394531 18.179688 -26.226562 19.140625 -25.882812 C 20.101562 -25.539062 20.941406 -25.035156 21.660156 -24.367188 Z M 18.324219 -19.855469 "></path></g></g></g><g fill="#ffffff" fill-opacity="1"><g transform="translate(312.118927, 147.646694)"><g><path d="M 14.664062 0.375 C 12.257812 0.375 10.203125 -0.0742188 8.496094 -0.976562 C 6.792969 -1.878906 5.492188 -3.203125 4.601562 -4.949219 C 3.707031 -6.695312 3.257812 -8.808594 3.257812 -11.28125 L 3.257812 -14.214844 C 3.257812 -16.785156 3.6875 -18.984375 4.550781 -20.804688 C 5.410156 -22.628906 6.660156 -24.015625 8.296875 -24.96875 C 9.933594 -25.921875 11.90625 -26.394531 14.214844 -26.394531 C 16.386719 -26.394531 18.242188 -25.851562 19.777344 -24.765625 C 21.316406 -23.679688 22.488281 -22.109375 23.300781 -20.054688 C 24.109375 -18 24.515625 -15.535156 24.515625 -12.660156 L 24.515625 -10.953125 L 6.96875 -10.953125 L 6.96875 -15.066406 L 19.652344 -15.066406 C 19.503906 -17.1875 18.957031 -18.839844 18.011719 -20.015625 C 17.066406 -21.195312 15.800781 -21.785156 14.214844 -21.785156 C 12.273438 -21.785156 10.773438 -21.148438 9.714844 -19.878906 C 8.652344 -18.609375 8.121094 -16.8125 8.121094 -14.488281 L 8.121094 -11.179688 C 8.121094 -9.023438 8.691406 -7.371094 9.828125 -6.214844 C 10.964844 -5.0625 12.574219 -4.488281 14.664062 -4.488281 C 15.699219 -4.488281 16.726562 -4.695312 17.746094 -5.113281 C 18.765625 -5.53125 19.679688 -6.117188 20.480469 -6.867188 L 23.839844 -3.507812 C 22.550781 -2.273438 21.105469 -1.316406 19.503906 -0.640625 C 17.898438 0.0390625 16.285156 0.375 14.664062 0.375 Z M 14.664062 0.375 "></path></g></g></g><g fill="#000000" fill-opacity="0"><g transform="translate(52.043709, 75.844499)"><g><path d="M 25.21875 -36.449219 L 30.332031 -36.449219 L 30.332031 0 L 25.21875 0 Z M 4.511719 -36.449219 L 9.625 -36.449219 L 9.625 0 L 4.511719 0 Z M 7.695312 -20.378906 L 27.925781 -20.378906 L 27.925781 -15.515625 L 7.695312 -15.515625 Z M 7.695312 -20.378906 "></path></g></g></g><g fill="#000000" fill-opacity="0"><g transform="translate(86.880143, 75.844499)"><g><path d="M 16.796875 0.375 C 14.105469 0.375 11.800781 -0.15625 9.890625 -1.214844 C 7.976562 -2.277344 6.519531 -3.824219 5.515625 -5.851562 C 4.511719 -7.882812 4.011719 -10.328125 4.011719 -13.1875 L 4.011719 -36.449219 L 9.125 -36.449219 L 9.125 -13.011719 C 9.125 -10.351562 9.792969 -8.296875 11.128906 -6.84375 C 12.46875 -5.390625 14.355469 -4.664062 16.796875 -4.664062 C 19.253906 -4.664062 21.152344 -5.390625 22.5 -6.84375 C 23.84375 -8.296875 24.515625 -10.351562 24.515625 -13.011719 L 24.515625 -36.449219 L 29.628906 -36.449219 L 29.628906 -13.1875 C 29.628906 -10.328125 29.128906 -7.882812 28.125 -5.851562 C 27.125 -3.824219 25.660156 -2.277344 23.738281 -1.214844 C 21.816406 -0.15625 19.503906 0.375 16.796875 0.375 Z M 16.796875 0.375 "></path></g></g></g><g fill="#000000" fill-opacity="0"><g transform="translate(120.513592, 75.844499)"><g><path d="M 30.707031 -36.449219 L 35.496094 -36.449219 L 35.496094 0 L 30.507812 0 L 30.507812 -27.296875 L 30.757812 -25.695312 L 21.785156 -5.0625 L 18.222656 -5.0625 L 9.25 -25.191406 L 9.5 -27.296875 L 9.5 0 L 4.511719 0 L 4.511719 -36.449219 L 9.300781 -36.449219 L 20.003906 -12.382812 Z M 30.707031 -36.449219 "></path></g></g></g><g fill="#000000" fill-opacity="0"><g transform="translate(160.512836, 75.844499)"><g><path d="M 14.4375 -36.449219 L 18.800781 -36.449219 L 32.238281 0 L 26.722656 0 L 16.621094 -29.40625 L 6.519531 0 L 1.003906 0 Z M 7.195312 -12.859375 L 26.371094 -12.859375 L 26.371094 -7.996094 L 7.195312 -7.996094 Z M 7.195312 -12.859375 "></path></g></g></g><g fill="#000000" fill-opacity="0"><g transform="translate(193.74529, 75.844499)"><g><path d="M 4.511719 -36.449219 L 9.148438 -36.449219 L 26.972656 -8.273438 L 26.371094 -7.621094 L 26.371094 -36.449219 L 31.433594 -36.449219 L 31.433594 -0.0234375 L 26.746094 -0.0234375 L 8.972656 -27.773438 L 9.574219 -28.425781 L 9.574219 -0.0234375 L 4.511719 -0.0234375 Z M 4.511719 -36.449219 "></path></g></g></g><g mask="url(#b88be9762d)"><g transform="matrix(0.239341, 0, 0, 0.239341, 10.340769, -0.239341)"><image x="0" y="0" width="1130" height="539" preserveAspectRatio="xMidYMid meet"></image></g></g></svg>